<svg width="13" height="13" viewBox="0 0 13 13" fill="none" xmlns="http://www.w3.org/2000/svg">
<path d="M4.5 2.5L4.5 2.1C4.5 1.21333 5.21333 0.500001 6.1 0.5L10.9 0.5C11.7867 0.5 12.5 1.21333 12.5 2.1L12.5 6.9C12.5 7.78667 11.7867 8.5 10.9 8.5L10.5 8.5M0.5 10.9L0.5 6.1C0.5 5.67565 0.668571 5.26869 0.968629 4.96863C1.26869 4.66857 1.67565 4.5 2.1 4.5L6.9 4.5C7.32435 4.5 7.73131 4.66857 8.03137 4.96863C8.33143 5.26869 8.5 5.67565 8.5 6.1L8.5 10.9C8.5 11.1101 8.45862 11.3182 8.37821 11.5123C8.2978 11.7064 8.17994 11.8828 8.03137 12.0314C7.73131 12.3314 7.32435 12.5 6.9 12.5L2.1 12.5C1.88989 12.5 1.68183 12.4586 1.48771 12.3782C1.29359 12.2978 1.1172 12.1799 0.968629 12.0314C0.668571 11.7313 0.5 11.3243 0.5 10.9Z" stroke="white" stroke-miterlimit="10" stroke-linecap="round" stroke-linejoin="round"/>
</svg>
